HIERARCHY
ROOT SimulationBone
{
	OFFSET 0.000000 0.000000 0.000000
	CHANNELS 6 Xposition Yposition Zposition Zrotation Yrotation Xrotation 
	JOINT Hips
	{
		OFFSET 0.000000 0.000000 0.000000
		CHANNELS 6 Xposition Yposition Zposition Zrotation Yrotation Xrotation 
		JOINT LeftUpLeg
		{
			OFFSET 0.103459 1.857826 10.548510
			CHANNELS 3 Zrotation Yrotation Xrotation
			JOINT LeftLeg
			{
				OFFSET 43.500000 -0.000023 0.000004
				CHANNELS 3 Zrotation Yrotation Xrotation
				JOINT LeftFoot
				{
					OFFSET 42.372200 0.000015 0.000002
					CHANNELS 3 Zrotation Yrotation Xrotation
					JOINT LeftToe
					{
						OFFSET 17.299997 -0.000001 -0.000010
						CHANNELS 3 Zrotation Yrotation Xrotation
						End Site
						{
							OFFSET 0.000000 0.000000 0.000000
						}
					}
				}
			}
		}
		JOINT RightUpLeg
		{
			OFFSET 0.103462 1.857828 -10.548512
			CHANNELS 3 Zrotation Yrotation Xrotation
			JOINT RightLeg
			{
				OFFSET 43.500046 -0.000019 0.000004
				CHANNELS 3 Zrotation Yrotation Xrotation
				JOINT RightFoot
				{
					OFFSET 42.372265 -0.000008 0.000019
					CHANNELS 3 Zrotation Yrotation Xrotation
					JOINT RightToe
					{
						OFFSET 17.299994 -0.000005 -0.000002
						CHANNELS 3 Zrotation Yrotation Xrotation
						End Site
						{
							OFFSET 0.000000 0.000000 0.000000
						}
					}
				}
			}
		}
		JOINT Spine
		{
			OFFSET 6.901970 -2.603727 0.000005
			CHANNELS 3 Zrotation Yrotation Xrotation
			JOINT Spine1
			{
				OFFSET 12.588102 0.000001 -0.000000
				CHANNELS 3 Zrotation Yrotation Xrotation
				JOINT Spine2
				{
					OFFSET 12.343201 -0.000005 -0.000002
					CHANNELS 3 Zrotation Yrotation Xrotation
					JOINT Neck
					{
						OFFSET 25.832886 -0.000002 0.000004
						CHANNELS 3 Zrotation Yrotation Xrotation
						JOINT Head
						{
							OFFSET 11.766621 0.000007 -0.000003
							CHANNELS 3 Zrotation Yrotation Xrotation
							End Site
							{
								OFFSET 0.000000 0.000000 0.000000
							}
						}
					}
					JOINT LeftShoulder
					{
						OFFSET 19.745899 -1.480368 6.000106
						CHANNELS 3 Zrotation Yrotation Xrotation
						JOINT LeftArm
						{
							OFFSET 11.284125 -0.000008 -0.000024
							CHANNELS 3 Zrotation Yrotation Xrotation
							JOINT LeftForeArm
							{
								OFFSET 33.000053 0.000001 0.000031
								CHANNELS 3 Zrotation Yrotation Xrotation
								JOINT LeftHand
								{
									OFFSET 25.200008 0.000018 0.000007
									CHANNELS 3 Zrotation Yrotation Xrotation
									End Site
									{
										OFFSET 0.000000 0.000000 0.000000
									}
								}
							}
						}
					}
					JOINT RightShoulder
					{
						OFFSET 19.746098 -1.480373 -6.000077
						CHANNELS 3 Zrotation Yrotation Xrotation
						JOINT RightArm
						{
							OFFSET 11.284138 -0.000021 -0.000000
							CHANNELS 3 Zrotation Yrotation Xrotation
							JOINT RightForeArm
							{
								OFFSET 33.000088 0.000017 0.000003
								CHANNELS 3 Zrotation Yrotation Xrotation
								JOINT RightHand
								{
									OFFSET 25.199770 0.000141 0.000423
									CHANNELS 3 Zrotation Yrotation Xrotation
									End Site
									{
										OFFSET 0.000000 0.000000 0.000000
									}
								}
							}
						}
					}
				}
			}
		}
	}
}
MOTION
Frames: 14
Frame Time: 0.016667
-30.337683 0.000000 -123.301736 0.000000 213.128884 0.000000 5.136113 83.719612 3.918442 106.376880 7.065554 178.183470 164.289901 -9.612902 177.267847 -56.683319 2.421657 3.648039 94.464459 -2.567768 -0.151095 21.454560 0.003106 0.000016 164.329557 17.284096 -157.491431 -62.997504 2.257930 -0.263991 80.645313 2.661025 10.335622 21.454553 -0.003092 0.000000 10.371927 0.057000 0.688934 10.731304 0.049884 1.380157 10.413300 0.058082 1.379819 0.201166 -12.469240 -11.801435 -49.937298 9.823417 -22.360655 -179.520020 -71.314111 -1.842048 -7.230308 30.603150 5.932885 -46.883046 -23.545458 2.250648 5.533400 -23.672600 -14.788468 177.538992 77.101984 -1.032482 -32.628711 -38.291464 13.951843 -105.946895 1.355564 -3.106694 -18.442465 -12.373934 -41.108015 
-28.824220 0.000000 -123.341266 0.000000 212.127004 0.000000 4.879816 84.194972 3.801905 106.188867 6.973113 178.808566 163.780407 -9.462479 176.741871 -54.968490 2.212489 3.678335 92.742291 -2.535998 0.223050 21.454561 0.003101 0.000016 165.728814 16.517201 -156.576380 -67.279376 1.780067 -1.165046 80.956242 3.282982 10.369662 21.454556 -0.003092 -0.000001 10.228753 0.090921 0.838386 10.445462 0.105818 1.681522 10.127491 0.115828 1.680835 0.458015 -12.443975 -11.851314 -49.636951 10.015907 -22.471699 -179.282911 -71.147170 -2.083354 -6.571728 32.595071 12.910781 -39.341534 -21.621627 1.931158 9.501662 -23.198018 -22.270804 175.946600 77.453535 -2.648026 -33.419297 -39.125465 14.424646 -105.353472 1.468124 -3.088778 -19.000695 -11.834577 -41.059908 
-27.234697 0.000000 -123.416593 0.000000 211.148294 0.000000 4.701302 84.615379 3.642519 106.026521 6.837067 179.380134 163.325041 -9.206409 175.990616 -53.231423 2.164961 3.746359 90.991964 -2.524363 0.596789 21.454560 0.003105 0.000017 167.543557 15.749998 -156.077964 -70.793407 1.554035 -1.811324 80.245043 3.896560 10.688599 21.454558 -0.003092 -0.000001 10.076476 0.099125 1.002330 10.141106 0.110059 2.009453 9.823208 0.122050 2.008739 0.884471 -11.952561 -11.921191 -49.409813 9.869658 -22.265124 -179.538926 -71.052003 -1.818006 -5.813396 34.981783 19.210228 -32.472952 -19.569013 1.599464 11.063036 -19.769108 -25.204936 175.908790 77.492521 -2.685599 -34.108779 -39.316764 14.585903 -104.963696 1.513202 -3.074593 -19.552096 -10.951064 -40.871048 
-25.572441 0.000000 -123.526320 0.000000 210.192719 0.000000 4.599536 84.961876 3.466953 105.868989 6.651064 179.877958 162.874381 -8.870879 175.115734 -51.535723 2.196952 3.820224 89.257237 -2.510477 0.944579 21.454557 0.003111 0.000018 169.693324 14.950816 -155.963501 -73.565680 1.524713 -2.279604 79.058928 4.475004 11.175650 21.454557 -0.003091 -0.000001 9.913711 0.089517 1.166382 9.815414 0.079819 2.336110 9.497607 0.093786 2.335580 1.405888 -11.192481 -11.978784 -49.219424 9.502180 -21.839284 -179.951406 -70.938533 -1.391009 -4.634754 37.646314 24.889135 -26.671560 -17.606952 1.347567 10.924561 -14.718596 -23.840932 176.717613 77.400487 -1.863269 -34.692206 -39.062310 14.524941 -104.720877 1.518762 -3.064256 -20.108497 -9.866501 -40.635966 
-23.840777 0.000000 -123.669053 0.000000 209.260180 0.000000 4.575481 85.215508 3.302045 105.695391 6.409595 -179.717790 162.380221 -8.481703 174.218591 -49.945525 2.228639 3.863113 87.582347 -2.474064 1.239533 21.454557 0.003115 0.000018 172.097476 14.092894 -156.201399 -75.615657 1.623231 -2.630167 77.943181 4.985461 11.726841 21.454557 -0.003091 -0.000001 9.739117 0.069928 1.316122 9.465764 0.032027 2.633506 9.148044 0.047791 2.633263 1.949521 -10.361876 -11.995416 -49.029696 9.031738 -21.291549 179.812981 -70.718198 -1.144040 -2.733610 40.428814 30.005939 -22.330487 -15.983136 1.190454 10.197329 -8.968932 -18.585971 177.619670 77.353110 -0.944551 -35.177403 -38.556349 14.344343 -104.568290 1.512707 -3.057194 -20.685826 -8.725616 -40.446153 
-22.043031 0.000000 -123.843393 0.000000 208.350520 0.000000 4.628146 85.363571 3.166121 105.505129 6.115794 -179.414348 161.819242 -8.059515 173.401841 -48.506871 2.194155 3.832603 85.995730 -2.393318 1.462373 21.454559 0.003112 0.000017 174.704886 13.160972 -156.749653 -76.945922 1.780431 -2.932486 77.352169 5.394408 12.211871 21.454556 -0.003091 -0.000001 9.556628 0.049086 1.440950 9.100227 -0.015201 2.881249 8.782570 0.002055 2.881285 2.473733 -9.636917 -11.957826 -48.834975 8.572811 -20.725106 179.999123 -70.351947 -1.328927 0.092304 43.187033 34.683754 -19.700820 -14.879516 1.095454 9.839578 -3.245827 -10.005085 178.114459 77.477613 -0.437269 -35.574580 -37.941372 14.145258 -104.478141 1.512544 -3.053207 -21.261696 -7.674596 -40.380116 
-20.182528 0.000000 -124.047947 0.000000 207.463529 0.000000 4.741875 85.418381 3.043632 105.378855 5.803866 -179.170816 161.261845 -7.603307 172.775810 -47.191723 2.076653 3.679568 84.461770 -2.233084 1.627448 21.454560 0.003108 0.000017 177.579905 12.177309 -157.521224 -77.509177 1.955833 -3.334538 77.382238 5.709515 12.354731 21.454557 -0.003091 -0.000001 9.391123 0.039561 1.545629 8.768901 -0.037984 3.089758 8.451298 -0.019472 3.089924 3.053089 -9.103850 -11.895120 -48.758134 8.225769 -20.267949 -179.465939 -69.991213 -1.874020 3.724305 45.948652 39.319335 -18.464870 -14.174194 1.028534 10.104854 2.075975 -0.178172 178.521310 77.679736 -0.018206 -35.888378 -37.159626 14.000334 -104.538401 1.494324 -3.054611 -21.643712 -6.860435 -40.470909 
-18.262594 0.000000 -124.281316 0.000000 206.598952 0.000000 4.898360 85.397261 2.915756 105.384343 5.504480 -178.947243 160.772167 -7.104424 172.420977 -45.956929 1.886091 3.367200 82.947731 -1.969699 1.728699 21.454556 0.003108 0.000018 -179.236098 11.161294 -158.436397 -77.257393 2.110690 -3.931127 77.949916 5.956027 11.977014 21.454558 -0.003092 -0.000001 9.263558 0.050481 1.641583 8.513999 -0.019794 3.282372 8.196463 -0.000116 3.282423 3.773513 -8.776979 -11.850742 -48.928447 8.031719 -20.006194 -178.773255 -69.802909 -2.585538 8.035098 48.747456 44.353782 -18.197903 -13.685064 0.992319 10.681930 6.735968 8.829673 179.285557 77.828516 0.763715 -36.105056 -36.141328 13.947996 -104.814917 1.435837 -3.062752 -21.687246 -6.343079 -40.679055 
-16.286555 0.000000 -124.542106 0.000000 205.756491 0.000000 5.087795 85.312561 2.780864 105.452781 5.213433 -178.749118 160.291303 -6.557911 172.287000 -44.774747 1.686173 2.913929 81.495125 -1.646643 1.651676 21.454553 0.003110 0.000019 -175.903312 10.094801 -159.480682 -76.186121 2.184832 -4.529675 78.616692 6.159197 11.447990 21.454557 -0.003092 -0.000000 9.158176 0.073533 1.751774 8.303856 0.021359 3.504247 7.986402 0.042376 3.504047 4.654257 -8.473269 -11.885239 -49.380955 7.801217 -19.839411 -178.338999 -69.831195 -3.034047 12.950221 51.477045 49.987766 -18.558727 -13.294652 0.973768 11.141639 10.455441 16.409022 -179.453918 77.879916 2.049309 -36.151459 -34.969717 13.927385 -105.169292 1.363393 -3.073172 -21.610427 -5.837519 -40.742197 
-14.257736 0.000000 -124.828919 0.000000 204.935809 0.000000 5.302017 85.176251 2.644016 105.505134 4.927454 -178.587096 159.756885 -5.969602 172.317664 -43.611421 1.532511 2.340152 80.137069 -1.316814 1.268653 21.454554 0.003110 0.000018 -172.591508 8.953940 -160.657355 -74.304341 2.141136 -4.904901 79.015737 6.306350 11.161830 21.454552 -0.003092 0.000000 9.056620 0.100651 1.894506 8.101575 0.068642 3.791347 7.784223 0.091382 3.790861 5.663416 -8.043737 -12.035998 -50.078838 7.371173 -19.662587 -178.511007 -70.069678 -2.860045 18.369585 54.012520 56.267776 -19.247744 -12.943964 0.960862 11.112721 13.152468 22.121618 -177.616057 77.823300 3.921681 -36.002620 -33.772225 13.889978 -105.440210 1.308370 -3.081204 -21.635962 -5.067293 -40.456248 
-12.179463 0.000000 -125.140361 0.000000 204.136540 0.000000 5.530192 85.003761 2.519146 105.559236 4.670065 -178.453183 159.218991 -5.376802 172.569237 -42.390383 1.400463 1.610161 78.804003 -0.986567 0.495317 21.454557 0.003109 0.000017 -169.316578 7.746599 -161.984848 -71.638206 2.068206 -4.971954 79.411248 6.287528 11.073603 21.454550 -0.003092 0.000000 8.966932 0.141649 2.057765 7.923643 0.142326 4.120330 7.606421 0.167041 4.119399 6.635999 -7.680467 -12.252325 -50.783985 6.912685 -19.549584 -179.108051 -70.416898 -2.249988 24.139897 56.276426 62.973379 -20.047823 -12.746419 0.955699 10.707955 15.515453 25.341500 -174.963068 77.698123 6.624940 -35.861555 -32.699376 13.907217 -105.578796 1.273586 -3.084869 -21.657085 -4.128526 -40.053608 
-10.055062 0.000000 -125.475034 0.000000 203.358285 0.000000 5.760193 84.814452 2.416627 105.647871 4.461460 -178.352580 158.752480 -4.820091 173.086128 -41.024794 1.251988 0.691674 77.421187 -0.652852 -0.692134 21.454558 0.003110 0.000017 -166.074058 6.507185 -163.465037 -68.212887 2.034979 -4.697580 80.044022 6.005177 11.001483 21.454555 -0.003092 -0.000000 8.900416 0.205921 2.226108 7.793165 0.261752 4.460963 7.476102 0.288523 4.459306 7.452915 -7.590829 -12.479291 -51.301648 6.617369 -19.589811 -179.890542 -70.760113 -1.450078 30.045806 58.228669 69.691460 -20.806263 -12.765984 0.963953 10.151251 18.116890 25.666969 -171.486490 77.525067 10.169320 -35.883469 -31.862853 14.027127 -105.564177 1.257990 -3.083044 -21.524451 -3.193610 -39.792803 
-7.887858 0.000000 -125.831542 0.000000 202.600623 0.000000 5.974670 84.639954 2.322399 105.764289 4.286797 -178.359516 158.413725 -4.327195 173.746475 -39.432607 1.063379 -0.371449 75.998961 -0.306606 -2.113172 21.454558 0.003112 0.000017 -162.936772 5.329104 -165.014010 -64.032660 1.946832 -4.143782 80.437047 5.489876 10.659711 21.454560 -0.003092 -0.000000 8.854810 0.283788 2.400794 7.705445 0.407409 4.815099 7.388557 0.436316 4.812556 8.298077 -7.690992 -12.694668 -51.817796 6.437588 -19.725269 179.037973 -71.036198 -0.352059 35.878737 59.790675 75.697946 -21.541554 -12.697060 0.971108 9.292477 20.627096 23.658710 -168.272883 77.269898 13.447585 -35.840863 -31.194760 14.132344 -105.375099 1.273685 -3.075945 -21.212822 -2.361716 -39.620588 
-5.681176 0.000000 -126.208490 0.000000 201.863112 0.000000 6.138882 84.495021 2.221896 105.872862 4.117981 -178.563618 158.205270 -3.921387 174.354710 -37.557937 0.845901 -1.505144 74.596927 0.053582 -3.566400 21.454558 0.003112 0.000018 -160.030629 4.312041 -166.564479 -59.121485 1.692094 -3.447030 80.227390 4.831482 9.882149 21.454556 -0.003092 0.000000 8.824695 0.360500 2.585728 7.649142 0.549641 5.189588 7.332437 0.580796 5.186180 9.333948 -7.857383 -12.875832 -52.531881 6.288919 -19.867760 177.618310 -71.200741 1.106474 41.302493 60.974173 80.278904 -22.287868 -12.306358 0.958488 8.032956 22.663826 20.191674 -166.301047 76.963204 15.461017 -35.535064 -30.626913 14.126139 -104.979289 1.334384 -3.063147 -20.742000 -1.672727 -39.474640 
